<?xml version="1.0" encoding="UTF-8" standalone="no"?>
<!-- Created with Inkscape (http://www.inkscape.org/) -->

<svg
   xmlns:dc="http://purl.org/dc/elements/1.1/"
   xmlns:cc="http://creativecommons.org/ns#"
   xmlns:rdf="http://www.w3.org/1999/02/22-rdf-syntax-ns#"
   xmlns:svg="http://www.w3.org/2000/svg"
   xmlns="http://www.w3.org/2000/svg"
   xmlns:sodipodi="http://sodipodi.sourceforge.net/DTD/sodipodi-0.dtd"
   xmlns:inkscape="http://www.inkscape.org/namespaces/inkscape"
   width="26"
   height="18"
   id="svg3392"
   version="1.1"
   inkscape:version="0.48.1 r9760"
   sodipodi:docname="New document 11">
  <defs
     id="defs3394" />
  <sodipodi:namedview
     id="base"
     pagecolor="#ffffff"
     bordercolor="#666666"
     borderopacity="1.0"
     inkscape:pageopacity="0.0"
     inkscape:pageshadow="2"
     inkscape:zoom="15.839192"
     inkscape:cx="21.842107"
     inkscape:cy="6.6358809"
     inkscape:document-units="px"
     inkscape:current-layer="layer1"
     showgrid="true"
     inkscape:window-width="1440"
     inkscape:window-height="840"
     inkscape:window-x="0"
     inkscape:window-y="32"
     inkscape:window-maximized="1">
    <inkscape:grid
       type="xygrid"
       id="grid3400"
       empspacing="5"
       visible="true"
       enabled="true"
       snapvisiblegridlinesonly="true" />
  </sodipodi:namedview>
  <metadata
     id="metadata3397">
    <rdf:RDF>
      <cc:Work
         rdf:about="">
        <dc:format>image/svg+xml</dc:format>
        <dc:type
           rdf:resource="http://purl.org/dc/dcmitype/StillImage" />
        <dc:title></dc:title>
      </cc:Work>
    </rdf:RDF>
  </metadata>
  <g
     inkscape:label="Layer 1"
     inkscape:groupmode="layer"
     id="layer1"
     transform="translate(0,-1034.3622)">
    <path
       style="fill:#ffffff;fill-opacity:1;stroke:none"
       d="m 0,1036.3622 c 0,0 3.9999999,0 7.9999999,0 6.0000001,0 4.0000001,10 8.0000001,10 4,0 6,0 6,0 l 0,-2 4,4 -4,4 0,-2 c 0,0 -2,0 -6,0 -6.0000001,0 -4,-10 -8.0000001,-10 -4,0 -7.9999999,0 -7.9999999,0 0,-2 0,-2 0,-4 z"
       id="path2994"
       inkscape:connector-curvature="0"
       sodipodi:nodetypes="csscccccsscc"
       inkscape:export-filename="/home/klange/shuffle.png"
       inkscape:export-xdpi="36.010258"
       inkscape:export-ydpi="36.010258" />
    <path
       style="fill:#ffffff;fill-opacity:1;stroke:none"
       d="m 22,1034.3673 0,2.0001 -6,0 c -1.5,0 -2.506248,0.6249 -3.225001,1.5625 L 14.4,1041.1548 c 0.404568,-0.4914 0.910783,-0.7875 1.6,-0.7875 l 6,0 0,2 4,-4 -4,-4 z m -12.4000001,11.2 c -0.4045681,0.4915 -0.910784,0.8001 -1.6,0.8001 l -7.9999999,0 0,3.9999 7.9999999,0 c 1.4999999,0 2.5062481,-0.625 3.2250001,-1.5625 l -1.6250001,-3.2375 z"
       id="path2996"
       inkscape:connector-curvature="0"
       inkscape:export-filename="/home/klange/shuffle.png"
       inkscape:export-xdpi="36.010258"
       inkscape:export-ydpi="36.010258" />
  </g>
</svg>
