<?xml version="1.0" encoding="UTF-8" standalone="no"?>
<!-- Created with Inkscape (http://www.inkscape.org/) -->

<svg
   xmlns:dc="http://purl.org/dc/elements/1.1/"
   xmlns:cc="http://creativecommons.org/ns#"
   xmlns:rdf="http://www.w3.org/1999/02/22-rdf-syntax-ns#"
   xmlns:svg="http://www.w3.org/2000/svg"
   xmlns="http://www.w3.org/2000/svg"
   xmlns:sodipodi="http://sodipodi.sourceforge.net/DTD/sodipodi-0.dtd"
   xmlns:inkscape="http://www.inkscape.org/namespaces/inkscape"
   width="20"
   height="20"
   id="svg2"
   version="1.1"
   inkscape:version="0.48.1 r9760"
   sodipodi:docname="delete.svg">
  <defs
     id="defs4">
    <inkscape:perspective
       sodipodi:type="inkscape:persp3d"
       inkscape:vp_x="7 : 8.4 : 1"
       inkscape:vp_y="0 : 800 : 0"
       inkscape:vp_z="23 : 8.4 : 1"
       inkscape:persp3d-origin="15 : 5.7333334 : 1"
       id="perspective4494" />
  </defs>
  <sodipodi:namedview
     id="base"
     pagecolor="#000000"
     bordercolor="#666666"
     borderopacity="1.0"
     inkscape:pageopacity="1"
     inkscape:pageshadow="2"
     inkscape:zoom="22.627417"
     inkscape:cx="11.121579"
     inkscape:cy="10.283211"
     inkscape:document-units="px"
     inkscape:current-layer="layer1"
     showgrid="true"
     inkscape:snap-global="true"
     inkscape:window-width="1440"
     inkscape:window-height="840"
     inkscape:window-x="0"
     inkscape:window-y="32"
     inkscape:window-maximized="1"
     showguides="true"
     inkscape:guide-bbox="true">
    <inkscape:grid
       type="xygrid"
       id="grid2985"
       empspacing="5"
       visible="true"
       enabled="true"
       snapvisiblegridlinesonly="true" />
  </sodipodi:namedview>
  <metadata
     id="metadata7">
    <rdf:RDF>
      <cc:Work
         rdf:about="">
        <dc:format>image/svg+xml</dc:format>
        <dc:type
           rdf:resource="http://purl.org/dc/dcmitype/StillImage" />
        <dc:title></dc:title>
      </cc:Work>
    </rdf:RDF>
  </metadata>
  <g
     inkscape:label="Layer 1"
     inkscape:groupmode="layer"
     id="layer1"
     transform="translate(0,-3137.0866)">
    <path
       style="fill:#ffffff;fill-opacity:1;stroke:none"
       d="m 5,3145.0866 0,9 c 0,0 0,1 1,1 1,0 8,0 8,0 0,0 1,0 1,-1 0,-1 0,-9 0,-9 z"
       id="path3027"
       inkscape:connector-curvature="0" />
    <path
       style="fill:#ffffff;stroke:none;stroke-width:1px;stroke-linecap:butt;stroke-linejoin:miter;stroke-opacity:1;fill-opacity:1"
       d="M 4,7 16,7 16,6 C 16,6 16,5 15,5 14,5 5,5 5,5 5,5 4,5 4,6 4,7 4,7 4,7 z"
       id="path3797"
       inkscape:connector-curvature="0"
       transform="translate(0,3137.0866)" />
    <path
       style="fill:#ffffff;fill-opacity:1;stroke:none"
       d="m 8,3141.0866 c 0,0 0,-1 1,-1 1,0 2,0 2,0 0,0 1,0 1,1 0,1 0,1 0,1 l -0.984375,0 -0.01563,-1 -2,0 0,1 -1,0 z"
       id="path3799"
       inkscape:connector-curvature="0"
       sodipodi:nodetypes="cscsccccccc" />
  </g>
</svg>
