<?xml version="1.0" encoding="UTF-8" standalone="no"?>
<!-- Created with Inkscape (http://www.inkscape.org/) -->

<svg
   xmlns:dc="http://purl.org/dc/elements/1.1/"
   xmlns:cc="http://creativecommons.org/ns#"
   xmlns:rdf="http://www.w3.org/1999/02/22-rdf-syntax-ns#"
   xmlns:svg="http://www.w3.org/2000/svg"
   xmlns="http://www.w3.org/2000/svg"
   xmlns:sodipodi="http://sodipodi.sourceforge.net/DTD/sodipodi-0.dtd"
   xmlns:inkscape="http://www.inkscape.org/namespaces/inkscape"
   width="20"
   height="20"
   id="svg2"
   version="1.1"
   inkscape:version="0.48.2 r9819"
   sodipodi:docname="search-advanced.svg">
  <defs
     id="defs4">
    <inkscape:perspective
       sodipodi:type="inkscape:persp3d"
       inkscape:vp_x="7 : 8.4 : 1"
       inkscape:vp_y="0 : 800 : 0"
       inkscape:vp_z="23 : 8.4 : 1"
       inkscape:persp3d-origin="15 : 5.7333334 : 1"
       id="perspective4494" />
  </defs>
  <sodipodi:namedview
     id="base"
     pagecolor="#000000"
     bordercolor="#666666"
     borderopacity="1.0"
     inkscape:pageopacity="1"
     inkscape:pageshadow="2"
     inkscape:zoom="15.414928"
     inkscape:cx="12.638912"
     inkscape:cy="13.911442"
     inkscape:document-units="px"
     inkscape:current-layer="layer1"
     showgrid="true"
     inkscape:snap-global="true"
     inkscape:window-width="1440"
     inkscape:window-height="842"
     inkscape:window-x="0"
     inkscape:window-y="30"
     inkscape:window-maximized="1"
     showguides="true"
     inkscape:guide-bbox="true">
    <inkscape:grid
       type="xygrid"
       id="grid2985"
       empspacing="5"
       visible="true"
       enabled="true"
       snapvisiblegridlinesonly="true" />
  </sodipodi:namedview>
  <metadata
     id="metadata7">
    <rdf:RDF>
      <cc:Work
         rdf:about="">
        <dc:format>image/svg+xml</dc:format>
        <dc:type
           rdf:resource="http://purl.org/dc/dcmitype/StillImage" />
        <dc:title />
      </cc:Work>
    </rdf:RDF>
  </metadata>
  <g
     inkscape:label="Layer 1"
     inkscape:groupmode="layer"
     id="layer1"
     transform="translate(0,-3137.0866)">
    <g
       id="g5102"
       transform="matrix(0.15371622,-0.03637242,0.03637242,0.15371622,10.041259,3147.0164)"
       inkscape:label="Gear8"
       style="fill:#ffffff;fill-opacity:1;stroke:none">
      <path
         inkscape:connector-curvature="0"
         id="path5104"
         d="m 28.087,-5.639 8.794,-1.766 0.582,-0.047 10.131,3.64 0,7.624 -10.131,3.64 -0.582,-0.047 -8.794,-1.766 -4.239,10.234 7.467,4.97 0.445,0.378 4.589,9.738 -5.39,5.39 -9.738,-4.589 -0.378,-0.445 -4.97,-7.467 -10.234,4.239 1.766,8.794 0.047,0.582 -3.64,10.131 -7.624,0 -3.64,-10.131 0.047,-0.582 1.766,-8.794 -10.234,-4.239 -4.97,7.467 -0.378,0.445 -9.738,4.589 -5.39,-5.39 4.589,-9.738 0.445,-0.378 7.467,-4.97 -4.239,-10.234 -8.794,1.766 -0.582,0.047 -10.131,-3.64 0,-7.624 10.131,-3.64 0.582,0.047 8.794,1.766 4.239,-10.234 -7.467,-4.97 -0.445,-0.378 -4.589,-9.738 5.39,-5.39 9.738,4.589 0.378,0.445 4.97,7.467 10.234,-4.239 -1.766,-8.794 -0.047,-0.582 3.64,-10.131 7.624,0 3.64,10.131 -0.047,0.582 -1.766,8.794 10.234,4.239 4.97,-7.467 0.378,-0.445 9.738,-4.589 5.39,5.39 -4.589,9.738 -0.445,0.378 -7.467,4.97 z"
         style="fill:#ffffff;fill-opacity:1;stroke:none" />
    </g>
  </g>
</svg>
