<?xml version="1.0" encoding="UTF-8" standalone="no"?>
<!-- Created with Inkscape (http://www.inkscape.org/) -->

<svg
   xmlns:dc="http://purl.org/dc/elements/1.1/"
   xmlns:cc="http://creativecommons.org/ns#"
   xmlns:rdf="http://www.w3.org/1999/02/22-rdf-syntax-ns#"
   xmlns:svg="http://www.w3.org/2000/svg"
   xmlns="http://www.w3.org/2000/svg"
   xmlns:sodipodi="http://sodipodi.sourceforge.net/DTD/sodipodi-0.dtd"
   xmlns:inkscape="http://www.inkscape.org/namespaces/inkscape"
   width="20"
   height="20"
   id="svg2"
   version="1.1"
   inkscape:version="0.48.1 r9760"
   sodipodi:docname="new.svg">
  <defs
     id="defs4">
    <inkscape:perspective
       sodipodi:type="inkscape:persp3d"
       inkscape:vp_x="7 : 8.4 : 1"
       inkscape:vp_y="0 : 800 : 0"
       inkscape:vp_z="23 : 8.4 : 1"
       inkscape:persp3d-origin="15 : 5.7333334 : 1"
       id="perspective4494" />
  </defs>
  <sodipodi:namedview
     id="base"
     pagecolor="#000000"
     bordercolor="#666666"
     borderopacity="1.0"
     inkscape:pageopacity="1"
     inkscape:pageshadow="2"
     inkscape:zoom="16"
     inkscape:cx="8.4879321"
     inkscape:cy="7.8018739"
     inkscape:document-units="px"
     inkscape:current-layer="layer1"
     showgrid="true"
     inkscape:snap-global="false"
     inkscape:window-width="1440"
     inkscape:window-height="840"
     inkscape:window-x="0"
     inkscape:window-y="32"
     inkscape:window-maximized="1"
     showguides="true"
     inkscape:guide-bbox="true">
    <inkscape:grid
       type="xygrid"
       id="grid2985"
       empspacing="5"
       visible="true"
       enabled="true"
       snapvisiblegridlinesonly="true" />
  </sodipodi:namedview>
  <metadata
     id="metadata7">
    <rdf:RDF>
      <cc:Work
         rdf:about="">
        <dc:format>image/svg+xml</dc:format>
        <dc:type
           rdf:resource="http://purl.org/dc/dcmitype/StillImage" />
        <dc:title></dc:title>
      </cc:Work>
    </rdf:RDF>
  </metadata>
  <g
     inkscape:label="Layer 1"
     inkscape:groupmode="layer"
     id="layer1"
     transform="translate(0,-3137.0866)">
    <path
       inkscape:connector-curvature="0"
       style="fill:#ffffff;fill-opacity:1;stroke:none"
       d="m 16.33832,3140.6735 0,1.4204 -4.162501,0 c -1.038461,0 -1.736331,0.4563 -2.2339275,1.1233 l 1.1249995,2.2955 c 0.280084,-0.3494 0.631779,-0.5616 1.108928,-0.5616 l 4.162501,0 0,1.4204 2.764285,-2.8572 -2.764285,-2.8408 z m -15.2357145,1.4204 0,2.8408 5.5446431,0 c 2.7692331,0 1.3747267,7.1185 5.5285704,7.1185 l 4.162501,0 0,1.4203 2.764284,-2.8408 -2.764284,-2.8408 0,1.4206 -4.162501,0 c -2.7692274,0 -1.374726,-7.1186 -5.5285704,-7.1186 l -5.5446431,0 z m 6.6535716,6.5569 c -0.2800852,0.3499 -0.6317795,0.5617 -1.1089285,0.5617 l -5.5446431,0 0,2.8407 5.5446431,0 c 1.0384611,0 1.7363314,-0.4396 2.233928,-1.1063 l -1.1249995,-2.2961 z"
       id="path3080"
       inkscape:export-xdpi="81.751411"
       inkscape:export-ydpi="81.751411" />
  </g>
</svg>
