<?xml version="1.0" encoding="UTF-8" standalone="no"?>
<!-- Created with Inkscape (http://www.inkscape.org/) -->

<svg
   xmlns:dc="http://purl.org/dc/elements/1.1/"
   xmlns:cc="http://creativecommons.org/ns#"
   xmlns:rdf="http://www.w3.org/1999/02/22-rdf-syntax-ns#"
   xmlns:svg="http://www.w3.org/2000/svg"
   xmlns="http://www.w3.org/2000/svg"
   xmlns:sodipodi="http://sodipodi.sourceforge.net/DTD/sodipodi-0.dtd"
   xmlns:inkscape="http://www.inkscape.org/namespaces/inkscape"
   width="20"
   height="20"
   id="svg2"
   version="1.1"
   inkscape:version="0.48.1 r9760"
   sodipodi:docname="vote-one.svg">
  <defs
     id="defs4" />
  <sodipodi:namedview
     id="base"
     pagecolor="#000000"
     bordercolor="#666666"
     borderopacity="1.0"
     inkscape:pageopacity="1"
     inkscape:pageshadow="2"
     inkscape:zoom="22.627417"
     inkscape:cx="0.16965859"
     inkscape:cy="10.803436"
     inkscape:document-units="px"
     inkscape:current-layer="layer1"
     showgrid="true"
     inkscape:snap-global="true"
     inkscape:window-width="1440"
     inkscape:window-height="840"
     inkscape:window-x="0"
     inkscape:window-y="32"
     inkscape:window-maximized="1">
    <inkscape:grid
       type="xygrid"
       id="grid2985"
       empspacing="5"
       visible="true"
       enabled="true"
       snapvisiblegridlinesonly="true" />
  </sodipodi:namedview>
  <metadata
     id="metadata7">
    <rdf:RDF>
      <cc:Work
         rdf:about="">
        <dc:format>image/svg+xml</dc:format>
        <dc:type
           rdf:resource="http://purl.org/dc/dcmitype/StillImage" />
      </cc:Work>
    </rdf:RDF>
  </metadata>
  <g
     inkscape:label="Layer 1"
     inkscape:groupmode="layer"
     id="layer1"
     transform="translate(0,-3137.0866)">
    <path
       style="color:#000000;fill:#ffffff;fill-opacity:1;fill-rule:nonzero;stroke:none;stroke-width:5;marker:none;visibility:visible;display:inline;overflow:visible;enable-background:accumulate"
       d="m 3.7139236,3138.0422 0,8.044 c -0.380973,-0.1524 -0.822549,-0.1755 -1.285387,-0.041 -0.9563263,0.2772 -1.55417799,1.1232 -1.326851,1.9074 0.2273269,0.7841 1.158343,1.1893 2.114669,0.9122 0.836786,-0.2426 1.394416,-0.9234 1.368316,-1.6172 l 0,-6.4684 5.4317964,0 0,5.3074 c -0.3809734,-0.1525 -0.8225494,-0.1755 -1.2853874,-0.041 -0.956326,0.2771 -1.554178,1.1231 -1.326851,1.9073 0.227327,0.7842 1.199807,1.1894 2.156133,0.9122 0.8367844,-0.2425 1.3944114,-0.9233 1.3683114,-1.6171 l 0,-9.2051 -7.2147494,0 z m 0.870747,0.9537 5.4317964,0 0,0.8293 -5.4317964,0 0,-0.8293 z"
       id="path2989"
       inkscape:connector-curvature="0" />
    <g
       transform="matrix(1.5630818,0,0,1.5630818,-7.7201397,3133.1945)"
       style="font-size:8px;font-style:normal;font-variant:normal;font-weight:normal;font-stretch:normal;text-align:center;writing-mode:lr-tb;text-anchor:middle;color:#000000;fill:#ffffff;fill-opacity:1;fill-rule:nonzero;stroke:none;stroke-width:5;marker:none;visibility:visible;display:inline;overflow:visible;enable-background:accumulate;font-family:Sans;-inkscape-font-specification:Sans"
       id="flowRoot3848">
      <path
         d="m 14.5625,9.2708683 0,2.1757817 2.175781,0 0,0.664062 -2.175781,0 0,2.175781 -0.65625,0 0,-2.175781 -2.175781,0 0,-0.664062 2.175781,0 0,-2.1757817 0.65625,0"
         style="fill:#ffffff;fill-opacity:1;marker:none"
         id="path3857"
         inkscape:connector-curvature="0" />
    </g>
  </g>
</svg>
